<?xml version="1.0" standalone="no"?>
<!DOCTYPE svg PUBLIC "-//W3C//DTD SVG 20010904//EN"
 "http://www.w3.org/TR/2001/REC-SVG-20010904/DTD/svg10.dtd">
<svg version="1.0" xmlns="http://www.w3.org/2000/svg"
 width="512.000000pt" height="512.000000pt" viewBox="0 0 512.000000 512.000000"
 preserveAspectRatio="xMidYMid meet">

<g transform="translate(0.000000,512.000000) scale(0.100000,-0.100000)"
fill="currentColor" stroke="none">
<path d="M2380 4794 c-957 -87 -1751 -758 -1988 -1679 -53 -208 -66 -317 -66
-555 0 -237 13 -348 65 -550 226 -878 948 -1528 1849 -1667 158 -24 481 -24
640 0 985 151 1745 912 1897 1897 24 159 24 481 0 640 -138 898 -788 1621
-1662 1850 -157 41 -313 61 -505 64 -102 2 -205 2 -230 0z m371 -324 c720 -73
1351 -559 1604 -1235 410 -1094 -243 -2294 -1386 -2549 -424 -94 -856 -41
-1254 154 -717 352 -1145 1119 -1065 1911 106 1048 1055 1824 2101 1719z"/>
<path d="M1575 3636 c-42 -18 -93 -79 -100 -120 -15 -77 -8 -85 438 -533 l422
-423 -422 -422 c-447 -449 -453 -457 -438 -534 8 -47 68 -111 116 -126 86 -25
83 -27 547 435 l422 422 423 -422 c448 -447 456 -453 533 -438 47 8 111 68
126 116 25 86 27 83 -435 546 l-422 423 422 423 c462 463 460 460 435 546 -15
48 -79 108 -126 116 -77 15 -85 9 -534 -439 l-422 -421 -418 417 c-467 468
-476 474 -567 434z" fill="currentColor"/>
</g>
</svg>
